<svg id="coder" enable-background="new 0 0 300 300"
height="80px" viewBox="0 0 300 300" width="120px" xmlns="http://www.w3.org/2000/svg">
<path d="m56 72.674c7.719 0 14-6.281 14-14s-6.281-14-14-14-14 6.281-14 14 6.281 14 14 14zm0-20c3.309 0 6 2.691 6 6s-2.691 6-6 6-6-2.691-6-6 2.691-6 6-6z"/>
<path d="m248 232.674c-7.719 0-14 6.281-14 14s6.281 14 14 14 14-6.281 14-14-6.281-14-14-14zm0 20c-3.309 0-6-2.691-6-6s2.691-6 6-6 6 2.691 6 6-2.691 6-6 6z"/>
<path d="m256 87.203c2.501 0 4.53-2.028 4.53-4.529 0-2.502-2.028-4.53-4.53-4.53s-4.53 2.028-4.53 4.53c0 2.501 2.029 4.529 4.53 4.529z"/>
<path d="m88 39.203c2.501 0 4.53-2.028 4.53-4.529 0-2.502-2.028-4.53-4.53-4.53s-4.53 2.028-4.53 4.53c0 2.501 2.029 4.529 4.53 4.529z"/>
<path d="m203.824 48.85c.781.781 1.805 1.172 2.828 1.172s2.047-.391 2.828-1.172l4.52-4.52 4.52 4.52c.781.781 1.805 1.172 2.828 1.172s2.047-.391 2.828-1.172c1.562-1.562 1.562-4.094 0-5.656l-4.52-4.52 4.52-4.52c1.562-1.562 1.562-4.094 0-5.656s-4.094-1.562-5.656 0l-4.52 4.52-4.52-4.52c-1.562-1.562-4.094-1.562-5.656 0s-1.562 4.094 0 5.656l4.52 4.52-4.52 4.52c-1.562 1.562-1.562 4.093 0 5.656z"/>
<path d="m193.881 197.863-23.881-10.855v-11.69c11.293-7.774 19.8-19.25 23.652-32.651 2.598.1 5.105-.646 7.523-2.152 3.713-2.312 6.223-6.082 6.717-10.082.492-4.008-.746-8.027-3.402-11.029-1.812-2.051-4.168-3.504-6.754-4.221-.034-1.518-.049-3.463-.037-5.326.148-.421.301-.846.301-1.303v-8.389c0-18.93-8.555-34.277-24.09-43.215-18.521-10.658-44.346-10.615-62.797.109-13.537 7.867-20.955 20.287-20.893 34.971l.051 6.438c.037 3.641.072 7.123.035 9.836-.002.131.058.243.069.371h-56.375c-2.209 0-4 1.791-4 4v80 28c0 2.209 1.791 4 4 4h33.535c-.974 3.565-1.535 7.283-1.535 11.096v32.902c0 2.209 1.791 4 4 4h144c2.209 0 4-1.791 4-4v-32.902c0-16.371-9.469-31.25-24.119-37.908zm-63.881-15.476c1.127.441 2.215.954 3.375 1.327 3.029.975 6.184 1.461 9.377 1.461 3.395 0 6.834-.551 10.219-1.646l1.029-.333v1.478c0 6.617-5.383 12-12 12s-12-5.383-12-12zm68.498-57.686c1.154 1.307 1.67 2.994 1.453 4.754-.199 1.625-1.324 3.221-3.004 4.268-1.686 1.051-3.109 1.217-4.928.574-1.08-.381-2.275-.283-3.277.277-1.002.559-1.717 1.521-1.961 2.643-3.898 17.883-17.117 32.492-34.496 38.125l-1.779.576c-4.896 1.586-10.111 1.65-14.68.182-17.688-5.695-30.998-20.559-34.736-38.791-.23-1.123-.93-2.094-1.924-2.664-.992-.572-2.18-.688-3.27-.324-1.539.521-2.969.6-4.918-.715-1.773-1.199-2.914-3.004-2.975-4.707-.059-1.65.537-3.209 1.678-4.391 1.143-1.184 2.676-1.834 4.318-1.834 1.08 0 2.16-.459 2.914-1.234 1.202-1.237 1.502-2.323 1.355-9.119 8.645-.422 16.651-3.178 22.917-7.838 6.479 9.674 16.674 16.559 28.635 19.184.012.003.025.003.037.006-1.989 2.55-3.276 5.625-3.656 9.002h-4.404c-1.01-8.975-8.557-16-17.798-16-9.926 0-18 8.074-18 18s8.074 18 18 18c7.812 0 14.409-5.031 16.894-12h6.211c2.485 6.969 9.083 12 16.894 12 9.926 0 18-8.074 18-18 0-4.853-1.95-9.245-5.083-12.485 4.37-1.407 8.662-3.375 12.82-5.892.153 3.912.605 4.375 1.395 5.177.752.762 1.797 1.201 2.867 1.201 1.722-.002 3.36.736 4.501 2.025zm-24.498 9.973c0 5.514-4.486 10-10 10s-10-4.486-10-10c0-5.427 4.353-9.837 9.747-9.974.116-.007.233-.008.349-.016 5.468.053 9.904 4.509 9.904 9.99zm-50 10c-5.514 0-10-4.486-10-10s4.486-10 10-10 10 4.486 10 10-4.486 10-10 10zm-8.867-80.699c15.84-9.203 38.883-9.244 54.789-.092 9.158 5.271 20.078 15.844 20.078 36.281v6.4c-12.023 8.812-25.611 12.107-38.465 9.287-11.334-2.488-20.732-9.539-25.781-19.348-.586-1.137-1.68-1.924-2.943-2.121-.205-.031-.41-.047-.613-.047-1.055 0-2.078.418-2.834 1.178-5.15 5.172-12.672 8.285-21.043 8.795-.008-1.854-.027-3.861-.049-5.922l-.051-6.391c-.065-14.997 9.16-23.515 16.912-28.02zm-28.345 52.699c-1.034.625-1.998 1.383-2.863 2.277-2.662 2.758-4.053 6.391-3.918 10.232.154 4.279 2.582 8.41 6.496 11.053 2.475 1.67 5.037 2.5 7.648 2.439 4.183 15.286 14.33 28.112 27.867 35.901-.001.034-.02.062-.02.097v4.697l-11.769 5.349c-.081-.005-.149-.047-.231-.047h-71.998v-72h48.788zm-16.788 100h-32v-20h54.734l-2.613 1.188c-8.611 3.914-15.356 10.709-19.517 18.935-.205-.034-.39-.123-.604-.123zm140 48h-16v-16c0-2.209-1.791-4-4-4s-4 1.791-4 4v16h-84v-16c0-2.209-1.791-4-4-4s-4 1.791-4 4v16h-20v-28.902c0-13.24 7.627-25.262 19.432-30.627l29.868-13.577c2.823 7.626 10.105 13.106 18.701 13.106 8.595 0 15.878-5.48 18.701-13.106l29.87 13.579c11.803 5.363 19.43 17.385 19.43 30.625v28.902z"/><circle cx="164" cy="134.674" r="4"/><circle cx="124" cy="134.674" r="4"/><path d="m178 224.674h-20c-2.209 0-4 1.791-4 4s1.791 4 4 4h20c2.209 0 4-1.791 4-4s-1.791-4-4-4z"/>
<path d="m258.801 116.674h-33.602c-6.176 0-11.199 5.023-11.199 11.199v65.602c0 6.176 5.023 11.199 11.199 11.199h33.602c6.176 0 11.199-5.023 11.199-11.199v-65.602c0-6.176-5.023-11.199-11.199-11.199zm-36.801 24h40v40h-40zm0-12.801c0-1.764 1.436-3.199 3.199-3.199h33.602c1.764 0 3.199 1.436 3.199 3.199v4.801h-40zm40 65.602c0 1.764-1.436 3.199-3.199 3.199h-33.602c-1.764 0-3.199-1.436-3.199-3.199v-4.801h40z"/><path d="m90.326 166.188-7.084 6.074c-1.678 1.438-1.871 3.963-.434 5.641.791.922 1.912 1.396 3.039 1.396.922 0 1.848-.316 2.602-.963l10.363-8.885c.846-.725 1.352-1.77 1.393-2.883.043-1.113-.379-2.195-1.168-2.982l-10.363-10.365c-1.562-1.562-4.094-1.562-5.656 0-1.562 1.561-1.562 4.094 0 5.656z"/><path d="m55.551 178.336c.754.646 1.68.963 2.602.963 1.127 0 2.248-.475 3.039-1.396 1.438-1.678 1.244-4.203-.434-5.641l-7.084-6.074 7.309-7.311c1.562-1.562 1.562-4.096 0-5.656-1.562-1.562-4.094-1.562-5.656 0l-10.363 10.365c-.789.787-1.211 1.869-1.168 2.982.041 1.113.547 2.158 1.393 2.883z"/>
<path d="m70.357 177.758c.23.041.461.059.686.059 1.912 0 3.602-1.373 3.938-3.318l2.961-17.143c.377-2.178-1.084-4.248-3.26-4.623-2.191-.387-4.248 1.086-4.623 3.26l-2.961 17.143c-.377 2.176 1.084 4.247 3.259 4.622z"/></svg>